<?xml version="1.0" standalone="no"?>
<!DOCTYPE svg PUBLIC "-//W3C//DTD SVG 20010904//EN"
 "http://www.w3.org/TR/2001/REC-SVG-20010904/DTD/svg10.dtd">
<svg version="1.0" xmlns="http://www.w3.org/2000/svg"
 width="512.000000pt" height="512.000000pt" viewBox="0 0 512.000000 512.000000"
 preserveAspectRatio="xMidYMid meet">

<g transform="translate(0.000000,512.000000) scale(0.100000,-0.100000)"
fill="#000000" stroke="none">
<path d="M2310 4845 c-682 -78 -1283 -442 -1664 -1010 -183 -273 -296 -558
-357 -902 -31 -173 -34 -548 -6 -718 68 -406 230 -779 466 -1074 28 -35 51
-65 51 -67 0 -2 -76 -113 -170 -246 -190 -270 -196 -284 -141 -339 55 -55 69
-49 339 141 145 102 248 168 255 164 7 -4 33 -25 59 -46 226 -187 593 -361
911 -432 262 -59 599 -71 857 -31 756 118 1393 594 1726 1290 239 500 287
1074 134 1619 -76 270 -228 569 -396 778 -30 37 -54 70 -54 73 0 3 77 115 170
247 190 270 196 284 141 339 -55 54 -69 48 -338 -141 -133 -93 -245 -170 -248
-170 -3 0 -36 24 -73 54 -174 140 -456 291 -677 365 -320 105 -663 142 -985
106z m575 -309 c210 -36 432 -111 605 -203 89 -48 271 -165 289 -187 8 -9 -74
-71 -345 -262 -196 -137 -541 -379 -768 -537 -226 -159 -423 -302 -438 -318
-30 -31 -36 -75 -17 -110 9 -19 9 -19 -10 -10 -35 19 -79 13 -110 -16 -16 -16
-159 -213 -318 -439 -785 -1121 -787 -1123 -801 -1111 -30 25 -157 229 -212
342 -228 466 -264 1015 -100 1504 246 737 875 1253 1656 1360 100 14 461 6
569 -13z m1339 -866 c157 -235 259 -494 311 -785 23 -126 30 -386 16 -525 -71
-688 -485 -1283 -1106 -1593 -264 -131 -513 -193 -825 -204 -334 -12 -639 53
-935 197 -113 56 -317 182 -343 212 -10 13 169 145 653 481 398 275 898 632
910 650 18 25 20 70 4 98 -9 19 -9 19 10 10 35 -19 79 -13 110 17 16 15 159
212 318 438 778 1111 787 1123 800 1113 6 -6 41 -55 77 -109z m-1544 -836 c68
-31 114 -74 148 -139 23 -43 27 -62 27 -135 0 -73 -4 -92 -27 -136 -54 -103
-154 -164 -268 -164 -87 0 -147 25 -211 89 -150 151 -108 391 86 482 81 39
166 40 245 3z"/>
</g>
</svg>
